<svg xmlns="http://www.w3.org/2000/svg"  viewBox="0 0 48 48" width="240px" height="240px" baseProfile="basic"><linearGradient id="nXk-rftR5TiIQL2hQo2tma" x1="24.219" x2="24.219" y1="39.372" y2="16.8" gradientUnits="userSpaceOnUse"><stop offset="0" stop-color="#fede00"/><stop offset=".519" stop-color="#fecc00"/><stop offset="1" stop-color="#ffb700"/></linearGradient><path fill="url(#nXk-rftR5TiIQL2hQo2tma)" d="M14.867,25.484c0,0,0.246,0.633,0.492,0.457s1.195-3.27,2.566-4.254	c1.371-0.984,1.617-1.652,1.617-1.652s0.984-2.109,1.477-1.898s0.457,2.25,1.055,2.109s1.125-3.41,1.547-3.445	s2.004,3.762,2.813,3.938c0.809,0.176,1.301-0.844,1.301-0.844s0.457-2.426,1.125-2.602s0.773,2.672,0.773,2.672	s0,2.426,0.563,2.566s0.563-0.105,1.23,0.211s2.145,2.004,2.145,2.004l-0.105,10.02c0,0-1.512,0.281-1.723,1.195	c0,0,0.281,2.145-1.582,2.25s-1.793-1.441-2.496-1.195s-0.738,1.617-1.406,1.688s-0.457-0.668-0.809-0.563s-0.949,1.266-1.688,1.23	s-1.406-2.18-2.285-2.004s-0.844,0.703-1.266,0.809s-3.199,0.457-5.273-3.234L14.867,25.484z"/><linearGradient id="nXk-rftR5TiIQL2hQo2tmb" x1="24.254" x2="24.254" y1="37.473" y2="18.348" gradientUnits="userSpaceOnUse"><stop offset="0" stop-color="#e38b01"/><stop offset=".489" stop-color="#f97300"/><stop offset=".995" stop-color="#e38901"/></linearGradient><polygon fill="url(#nXk-rftR5TiIQL2hQo2tmb)" points="14.867,31.813 16.203,35.223 16.379,32.129 17.187,35.82 17.293,31.074 18.664,35.82 18.559,30.863 19.191,31.355 20.07,35.75 20.703,29.809 21.09,29.809 22.637,36.664 23.27,30.969 23.586,30.969 23.867,37.473 25.625,31.004 26.082,36.207 27.383,30.898 27.629,30.863 28.859,37.051 29.246,31.918 29.773,30.512 30.02,31.074 30.23,36.664 31.496,31.637 31.496,31.004 31.953,30.863 32.445,33.5 32.656,31.203 33.547,31.203 33.641,29.563 32.75,29.563 32.445,25.273 31.906,28.625 31.391,27.594 31.25,23.656 29.75,29 28.719,19.508 27.594,28.543 27.242,28.965 26.187,21.652 24.535,29.598 24.184,18.348 22.578,30.688 20.984,19.332 20.105,29.211 19.473,27.875 19.016,21.582 18.629,28.719 17.797,29.844 17.293,23.551 16.73,28.438 15.957,27.453 15.969,30.828 14.902,27.77"/><linearGradient id="nXk-rftR5TiIQL2hQo2tmc" x1="24.324" x2="24.324" y1="33.781" y2="25.672" gradientUnits="userSpaceOnUse"><stop offset=".518" stop-color="#e52030"/><stop offset="1" stop-color="#e52030"/></linearGradient><polygon fill="url(#nXk-rftR5TiIQL2hQo2tmc)" points="15.043,28.227 15.969,30.828 15.969,28.836 16.672,29.328 17.562,27.195 17.797,29.844 19.156,27.5 20.047,28.906 20.469,25.672 21.172,29.047 22.133,27.43 22.578,30.688 23.047,26.984 23.609,28.672 24.406,26.047 24.523,28.883 25.203,26.609 25.812,28.109 26.797,26.281 27.219,28.625 27.875,26.328 28.25,28.297 29.562,27.102 29.75,29 30.219,27.406 30.547,28.438 31.391,27.594 31.836,28.367 32.117,27.383 32.75,29.563 33.641,29.563 33.547,31.203 32.656,31.203 32.562,31.906 32.117,32 31.953,30.863 31.742,30.945 31.496,31.637 30.078,31.906 29.773,30.512 29.281,32.129 28.859,30.898 28.133,33.383 27.594,30.898 27.406,30.969 26.961,32.656 26.223,30.934 25.812,32.938 25.625,31.18 25.203,32.656 24.57,31.707 23.691,33.781 23.586,30.969 23.27,30.969 22.953,33.758 22.25,31.074 21.477,31.496 21.09,29.809 20.703,29.809 20.562,31.777 19.508,30.266 19.32,31.93 18.559,30.863 18.594,32.445 17.293,31.074 17.258,32.516 16.602,33.055 16.367,32.211 15.008,32.234"/><linearGradient id="nXk-rftR5TiIQL2hQo2tmd" x1="24" x2="24" y1="38" y2="6" gradientUnits="userSpaceOnUse"><stop offset=".069" stop-color="#183efb"/><stop offset=".713" stop-color="#1e97e6"/><stop offset="1" stop-color="#6db5ff"/></linearGradient><path fill="url(#nXk-rftR5TiIQL2hQo2tmd)" d="M35,38c3.667,0.021,7-4,7-9c0-4-2-8-5-9v-3c0-5.635-5.842-11-13-11	s-13.135,5.387-13.135,11.022V20C8,21,6,24,6,29s3,9,7,9V17c0-4.774,4.68-9,11-9s11,4.226,11,9"/><linearGradient id="nXk-rftR5TiIQL2hQo2tme" x1="24" x2="24" y1="38.001" y2="20" gradientUnits="userSpaceOnUse"><stop offset="0" stop-color="#007ad9"/><stop offset="1" stop-color="#2aa4f4"/></linearGradient><path fill="url(#nXk-rftR5TiIQL2hQo2tme)" d="M35,20c-0.567,0.007-1.588,0.49-2,1v16c0.436,0.384,1.45,0.902,2,1V20z M13,20v18	c0.619,0.026,1.646-0.47,2-1V21C14.56,20.605,13.549,20.079,13,20z"/></svg>