<?xml version="1.0" encoding="utf-8"?>
<!-- Generator: Adobe Illustrator 26.0.3, SVG Export Plug-In . SVG Version: 6.00 Build 0)  -->
<svg version="1.0" id="katman_1" xmlns="http://www.w3.org/2000/svg" xmlns:xlink="http://www.w3.org/1999/xlink" x="0px" y="0px"
	 viewBox="0 0 800 600" style="enable-background:new 0 0 800 600;" xml:space="preserve">
<style type="text/css">
	.st0{fill-rule:evenodd;clip-rule:evenodd;}
</style>
<polygon class="st0" points="76.1,245.6 76.1,262.9 117.4,258.6 132.6,258.6 132.6,286.6 107,294.4 72.2,302.8 77.4,319.7 
	110.7,306.9 132.6,300.2 132.6,346.1 117.4,346.1 76.1,341.8 76.1,359.1 202.1,359.1 202.1,341.8 160.9,346.1 145.6,346.1 
	145.6,300.2 167.5,306.9 200.9,319.7 206,302.8 171.4,294.4 145.6,286.6 145.6,258.6 160.9,258.6 202.1,262.9 202.1,245.6 "/>
<path class="st0" d="M713.9,306.8l-9.8-26.2h-2.4l-9.8,26.2H713.9z M736,338.2h-10.5l-8.2-21.9h-28.9l-8.2,21.9h-10.5l27.2-72.5
	h11.9L736,338.2z"/>
<path class="st0" d="M623.6,301.8c7.5,0,16.5-2.3,16.5-13.2c0-11.6-10.3-13.3-16.5-13.3h-22.1v26.6H623.6z M631.9,310.5l17.5,27.6
	h-12l-16.8-26.6h-19.1v26.6h-9.9v-72.4h32c18.3,0,26.4,11.5,26.4,22.9C650,304.9,636.6,309.4,631.9,310.5z"/>
<path class="st0" d="M556.6,310.6c0,0.8-0.2,19-19.2,19c-17.7,0-19.2-14.6-19.2-19v-44.9h-10v44.9c0,13.1,7.6,28.4,29.2,28.4
	c21.5,0,29.2-15.3,29.2-28.4v-44.9h-10V310.6z"/>
<path class="st0" d="M488.4,265.7v9.6h-48.5v19H483v9.5h-43.1v34.3h-9.9v-72.4H488.4z"/>
<path class="st0" d="M389.2,265.7v57.5H387l-35.1-57.5h-12.9v72.4h9.9v-55.7h2.2l33.5,55.7h14.5v-72.4H389.2z"/>
<path class="st0" d="M258.3,265.7v8.9h22.1v54.5h-22.1v8.9h54.1v-8.9h-22.1v-54.5h22.1v-8.9H258.3z"/>
</svg>
