<?xml version="1.0" encoding="UTF-8"?>
<svg width="102px" height="28px" viewBox="0 0 102 28" version="1.1" xmlns="http://www.w3.org/2000/svg" xmlns:xlink="http://www.w3.org/1999/xlink">
    <title>编组 3备份 2</title>
    <defs>
        <rect id="path-1" x="0" y="0" width="102" height="28"></rect>
        <linearGradient x1="0%" y1="38.1124424%" x2="94.0076601%" y2="62.6108312%" id="linearGradient-3">
            <stop stop-color="#8FF4FF" offset="0%"></stop>
            <stop stop-color="#73B3FF" offset="51.7598932%"></stop>
            <stop stop-color="#5F81FF" offset="100%"></stop>
        </linearGradient>
        <polygon id="path-4" points="0.0446990757 0.0597394286 6.54334286 0.0597394286 6.54334286 8.20643246 0.0446990757 8.20643246"></polygon>
        <polygon id="path-6" points="0.0401132317 0.0990226286 5.70040208 0.0990226286 5.70040208 5.92259863 0.0401132317 5.92259863"></polygon>
    </defs>
    <g id="页面-1" stroke="none" stroke-width="1" fill="none" fill-rule="evenodd">
        <g id="首页-快速了解-hover" transform="translate(-363.000000, -3375.000000)">
            <g id="编组-3备份-2" transform="translate(363.000000, 3375.000000)">
                <mask id="mask-2" fill="white">
                    <use xlink:href="#path-1"></use>
                </mask>
                <g id="矩形"></g>
                <g id="编组-129" mask="url(#mask-2)" fill="url(#linearGradient-3)">
                    <g transform="translate(1.000000, 4.000000)" id="形状结合">
                        <path d="M33.0646787,0 C31.8235966,0 30.9821628,0.695408169 30.9821628,1.76025085 L30.9821628,1.76025085 C30.9821628,2.65121546 31.6973866,3.1184282 32.3074185,3.36833671 L32.3074185,3.36833671 C32.833344,3.5857103 33.317166,3.71602345 33.317166,3.99857096 L33.317166,3.99857096 C33.317166,4.21587517 33.1698706,4.32450994 32.7912405,4.32450994 L32.7912405,4.32450994 C32.4231195,4.32450994 31.9918431,4.15066657 31.5080212,3.78123206 L31.5080212,3.78123206 L30.708691,4.93299642 C31.2556347,5.3893873 32.0760167,5.6936132 32.7491704,5.6936132 L32.7491704,5.6936132 C34.2216544,5.6936132 35,4.91128334 35,3.88990151 L35,3.88990151 C35,2.91201521 34.2847762,2.49908517 33.6536925,2.26006788 L33.6536925,2.26006788 C33.1278006,2.06447674 32.6650304,1.95584198 32.6650304,1.67336384 L32.6650304,1.67336384 C32.6650304,1.45599026 32.8228014,1.36903389 33.1278006,1.36903389 L33.1278006,1.36903389 C33.4538851,1.36903389 33.8220061,1.54287726 34.2006362,1.82542477 L34.2006362,1.82542477 L35,0.717155934 C34.5372299,0.358577967 33.9271979,0 33.0646787,0 Z M21.2799385,3.64748505 L18.2749377,3.64748505 L18.2737625,3.64748505 L14.6028267,13.2836522 L10.9318908,3.64748505 L7.92571484,3.64748505 L6.77636079,16.7832733 L9.78257032,16.7832733 L10.4144263,9.56128135 L13.3571111,16.5536904 L13.3551638,16.5587892 L13.35926,16.5587892 L15.8463934,16.5587892 L15.8504896,16.5587892 L15.8485086,16.5536904 L18.7921671,9.55899211 L19.4242582,16.7832733 L22.4304677,16.7832733 L21.2810801,3.64748505 L21.2799385,3.64748505 Z M0,1.57274141 L0,1.57686898 L0,3.60374672 L0,3.62389895 L0,19.8296945 L0,20 L4.97792655,20 L4.97792655,17.9353845 L1.99491764,17.9353845 L1.99491764,3.62389895 L4.97792655,3.62389895 L4.97792655,3.60374672 L4.97792655,3.4343084 L4.97792655,1.57686898 L4.97792655,1.57274141 L0,1.57274141 Z M24.2288683,1.57274141 L24.2288683,1.57686898 L24.2288683,3.4343084 L24.2288683,3.60374672 L24.2288683,3.62389895 L27.2119108,3.62389895 L27.2119108,17.9353845 L24.2288683,17.9353845 L24.2288683,20 L29.2068285,20 L29.2068285,19.8296945 L29.2068285,3.62389895 L29.2068285,3.60374672 L29.2068285,1.57686898 L29.2068285,1.57274141 L24.2288683,1.57274141 Z"></path>
                    </g>
                </g>
                <g id="编组" mask="url(#mask-2)">
                    <g transform="translate(40.102857, 8.468571)">
                        <path d="M7.74682987,0.250464343 L6.59094284,0.250464343 C6.5761945,0.250464343 6.56245941,0.257705486 6.55412828,0.270038057 L3.90066559,4.20752263 L1.22648767,0.269811771 C1.21815655,0.257705486 1.20442145,0.250464343 1.1897857,0.250464343 L0.0443688594,0.250464343 C0.0198258212,0.250464343 1.12582744e-05,0.270377486 1.12582744e-05,0.295042629 L1.12582744e-05,8.05698206 C1.12582744e-05,8.08153406 0.0198258212,8.10156034 0.0443688594,8.10156034 L0.990063909,8.10156034 C1.01460695,8.10156034 1.03453409,8.08153406 1.03453409,8.05698206 L1.03453409,1.80719691 L3.75971199,5.64330549 C3.76793053,5.65507234 3.78144046,5.6620872 3.79573847,5.6620872 L3.99546026,5.6620872 C4.00975827,5.6620872 4.02315561,5.65507234 4.03148674,5.64341863 L6.74619444,1.8280152 L6.74619444,8.05698206 C6.74619444,8.08153406 6.76600901,8.10156034 6.79055204,8.10156034 L7.74682987,8.10156034 C7.77137291,8.10156034 7.79118747,8.08153406 7.79118747,8.05698206 L7.79118747,0.295042629 C7.79118747,0.270377486 7.77137291,0.250464343 7.74682987,0.250464343" id="Fill-1" fill="#FFFFFF"></path>
                        <path d="M10.5515024,0.271622057 C10.2416747,0.271622057 9.90820465,0.470640343 9.90820465,0.907598057 C9.90820465,1.34693177 10.2313171,1.54357406 10.5515024,1.54357406 C10.8613302,1.54357406 11.1948002,1.34783691 11.1948002,0.918120343 C11.1948002,0.493608343 10.8712374,0.271622057 10.5515024,0.271622057" id="Fill-3" fill="#FFFFFF"></path>
                        <path d="M10.9928268,2.51039109 L10.0891251,2.51039109 C10.0645821,2.51039109 10.0447675,2.53030423 10.0447675,2.55496937 L10.0447675,8.05688023 C10.0447675,8.08154537 10.0645821,8.10157166 10.0891251,8.10157166 L10.9928268,8.10157166 C11.0173698,8.10157166 11.0371844,8.08154537 11.0371844,8.05688023 L11.0371844,2.55496937 C11.0371844,2.53030423 11.0173698,2.51039109 10.9928268,2.51039109" id="Fill-5" fill="#FFFFFF"></path>
                        <path d="M15.9628146,2.41531714 C15.2011923,2.41531714 14.6137355,2.709036 14.1710602,3.31208743 L14.1261397,2.56285543 C14.1247887,2.53932171 14.1053119,2.52099257 14.0817821,2.52099257 L13.2621797,2.52099257 C13.2376367,2.52099257 13.2178221,2.54090571 13.2178221,2.56557086 L13.2178221,8.05695943 C13.2178221,8.08162457 13.2376367,8.10153771 13.2621797,8.10153771 L14.1554112,8.10153771 C14.1799542,8.10153771 14.1997688,8.08162457 14.1997688,8.05695943 L14.1997688,5.12112857 C14.1997688,4.09458343 14.8705368,3.34942457 15.7947285,3.34942457 C16.7968275,3.34942457 17.3265293,3.93290229 17.3265293,5.03661086 L17.3265293,8.05695943 C17.3265293,8.08162457 17.3463439,8.10153771 17.3708869,8.10153771 L18.2745886,8.10153771 C18.2991317,8.10153771 18.3189462,8.08162457 18.3189462,8.05695943 L18.3189462,5.02608857 C18.3189462,3.41572629 17.4161452,2.41531714 15.9628146,2.41531714" id="Fill-7" fill="#FFFFFF"></path>
                        <path d="M22.8342686,7.28366194 C21.6931299,7.28366194 20.9557129,6.50942537 20.9557129,5.31124251 C20.9557129,3.95601737 21.8939775,3.34945851 22.8237984,3.34945851 C23.9245199,3.34945851 24.723407,4.17008366 24.723407,5.30072023 C24.723407,6.44968594 23.9289106,7.28366194 22.8342686,7.28366194 M25.7199895,0.243234514 C25.7046782,0.237011657 25.6870027,0.239727086 25.6743934,0.250475657 L24.7992878,0.250475657 C24.7747447,0.250475657 24.7549302,0.2703888 24.7549302,0.295053943 L24.7549302,3.41406309 C24.3123674,2.7255888 23.4531359,2.41535109 22.760752,2.41535109 C21.0613155,2.41535109 19.9631834,3.55617051 19.9631834,5.3217648 C19.9631834,7.09380823 21.0654811,8.23881394 22.7712222,8.23881394 C23.5953279,8.23881394 24.3325197,7.84914994 24.7714798,7.18896137 L24.8075063,8.04828137 C24.8085196,8.07215451 24.8279964,8.09104937 24.8518639,8.09104937 L25.7029895,8.09104937 C25.7275325,8.09104937 25.7473471,8.07102309 25.7473471,8.04635794 L25.7473471,0.284531657 C25.7473471,0.2664288 25.7365391,0.250249371 25.7199895,0.243234514" id="Fill-9" fill="#FFFFFF"></path>
                        <g id="编组" stroke-width="1" fill="none" transform="translate(27.357607, 0.053437)">
                            <mask id="mask-5" fill="white">
                                <use xlink:href="#path-4"></use>
                            </mask>
                            <g id="Clip-12"></g>
                            <path d="M3.4375227,3.50297074 C2.16972842,3.30429189 1.38390086,3.02856274 1.38390086,2.26914789 C1.38390086,1.44569417 2.38172172,1.01495931 3.36738365,1.01484617 C4.32129724,1.02649989 5.12063472,1.39387474 5.50544254,1.99760503 C5.51850214,2.01808389 5.545522,2.0241936 5.5663498,2.01140846 L6.29138267,1.55736617 C6.31153499,1.54458103 6.31817737,1.51821874 6.30635618,1.49728731 C5.58188622,0.2231856 4.34403895,0.0596941714 3.34655584,0.0596941714 C2.30933102,0.0596941714 1.37624524,0.3815856 0.850483823,0.920711314 C0.500576655,1.27960046 0.328437639,1.7264016 0.338907834,2.24810331 C0.338907834,3.84873531 1.81103979,4.21181074 3.31886048,4.44646903 C4.6333766,4.64876846 5.5089326,4.95945874 5.5089326,5.81753417 C5.5089326,6.14644046 5.35446908,7.2197136 3.36760881,7.2197136 C2.33015883,7.2197136 1.36780153,6.69393874 0.915894397,5.88021531 C0.910152677,5.86969303 0.900357979,5.86211246 0.888874539,5.85894446 C0.877165933,5.85555017 0.865006997,5.85736046 0.854761967,5.86347017 L0.0666827593,6.32814789 C0.0469807791,6.33968846 0.0392125697,6.36446674 0.048782103,6.38528503 C0.577358086,7.54262331 1.78323186,8.20643246 3.35713862,8.20643246 C4.89749572,8.20643246 6.54334286,7.58731474 6.54334286,5.84910103 C6.54334286,4.11677074 5.07413805,3.7507536 3.4375227,3.50297074" id="Fill-11" fill="#FFFFFF" mask="url(#mask-5)"></path>
                        </g>
                        <path d="M38.5950984,3.40221703 C39.7121444,3.40221703 40.3790846,4.13164903 40.3790846,5.35347874 C40.3790846,6.54408103 39.6954822,7.28369589 38.5950984,7.28369589 C37.5361451,7.28369589 36.7374831,6.45390617 36.7374831,5.35347874 C36.7374831,4.22284217 37.5186948,3.40221703 38.5950984,3.40221703 M38.7002507,2.42590731 C37.8626351,2.42590731 37.1096817,2.82733817 36.6582249,3.5072136 L36.6218607,2.59550846 C36.62096,2.57152217 36.6013706,2.55262731 36.5775031,2.55262731 L35.7159073,2.55262731 C35.6913643,2.55262731 35.6714371,2.57254046 35.6714371,2.5972056 L35.6714371,10.644265 C35.6714371,10.6689302 35.6913643,10.6888433 35.7159073,10.6888433 L36.598556,10.6888433 C36.6230991,10.6888433 36.6429136,10.6689302 36.6429136,10.644265 L36.6429136,7.22870846 C37.1428936,7.96255303 37.9935688,8.2283256 38.6476746,8.2283256 C40.3023031,8.2283256 41.371614,7.09157931 41.371614,5.33243417 C41.371614,3.5998776 40.3233561,2.45894503 38.7002507,2.42590731" id="Fill-13" fill="#FFFFFF"></path>
                        <path d="M45.5927352,7.29420686 C44.4866097,7.29420686 43.7141795,6.48749829 43.7141795,5.33242286 C43.7141795,4.15856571 44.4910004,3.33884571 45.6033179,3.33884571 C46.6978474,3.33884571 47.4923438,4.17723429 47.4923438,5.33242286 C47.4923438,6.48749829 46.7112447,7.29420686 45.5927352,7.29420686 M45.5927352,2.41526057 C43.9292125,2.41526057 42.72165,3.64218171 42.72165,5.33242286 C42.72165,7.01644114 43.9292125,8.23883657 45.5927352,8.23883657 C47.2624498,8.23883657 48.4742905,7.01644114 48.4742905,5.33242286 C48.4742905,3.61480114 47.2893571,2.41526057 45.5927352,2.41526057" id="Fill-15" fill="#FFFFFF"></path>
                        <path d="M52.8111579,2.43647486 C52.0702509,2.43647486 51.5201716,2.70869657 51.1739797,3.246012 L51.1216287,2.56206343 C51.1202777,2.54475257 51.1090194,2.52970457 51.0926949,2.523708 C51.0776088,2.51805086 51.060834,2.52121886 51.0486751,2.53140171 L50.2261455,2.53140171 C50.2017151,2.53140171 50.1817879,2.551428 50.1817879,2.57609314 L50.1817879,8.05695943 C50.1817879,8.08162457 50.2017151,8.10153771 50.2261455,8.10153771 L51.1298472,8.10153771 C51.1543903,8.10153771 51.1742048,8.08162457 51.1742048,8.05695943 L51.1742048,5.005044 C51.1742048,4.082364 51.8272973,3.41278457 52.7271712,3.41278457 C53.1009459,3.41278457 53.358873,3.49334229 53.6470848,3.70016743 C53.6574424,3.70752171 53.6706146,3.71035029 53.6828861,3.70729543 C53.6953828,3.70435371 53.7059656,3.69609429 53.7119325,3.68478 L54.1217336,2.91393771 C54.1320913,2.89447714 54.1267999,2.87037771 54.109237,2.85714 C53.7356874,2.57564057 53.2742107,2.4255 52.8111579,2.43647486" id="Fill-17" fill="#FFFFFF"></path>
                        <g id="编组" stroke-width="1" fill="none" transform="translate(54.827796, 2.316295)">
                            <mask id="mask-7" fill="white">
                                <use xlink:href="#path-6"></use>
                            </mask>
                            <g id="Clip-20"></g>
                            <path d="M1.05121886,2.51733806 C1.22088105,1.58062834 1.93713247,1.00145006 2.93213876,1.00145006 C4.01586025,1.00145006 4.66658851,1.55313463 4.72434346,2.51733806 L1.05121886,2.51733806 Z M5.05083342,0.927002057 C4.56132365,0.385274057 3.82142985,0.0990226286 2.91119837,0.0990226286 C1.24756316,0.0990226286 0.0401132317,1.31247977 0.0401132317,2.98439177 C0.0401132317,4.74183977 1.2107486,5.92259863 2.95319173,5.92259863 C3.89359539,5.92259863 4.80168781,5.54617234 5.32846247,4.93904777 C5.34219756,4.93565349 5.353681,4.92558377 5.35897239,4.91178034 C5.36550219,4.89458263 5.36077371,4.87489577 5.3471512,4.86267634 L4.73762822,4.31348091 C4.72850902,4.30522149 4.71635009,4.3018272 4.70419115,4.30216663 C4.69191963,4.30329806 4.68077394,4.30940777 4.67311831,4.31913806 C4.32951578,4.75858491 3.55832398,4.9884912 2.97413212,4.9884912 C1.9434371,4.9884912 1.15828504,4.32422949 1.04784137,3.36692777 L5.63277362,3.36692777 C5.65551534,3.36692777 5.67476699,3.34950377 5.67690606,3.32653577 C5.77530338,2.30315863 5.56466106,1.4957712 5.05083342,0.927002057 L5.05083342,0.927002057 Z" id="Fill-19" fill="#FFFFFF" mask="url(#mask-7)"></path>
                        </g>
                    </g>
                </g>
            </g>
        </g>
    </g>
</svg>